# AST/ASF file generated using VICON BodyLanguage
# -----------------------------------------------
:version 1.10
:name VICON
:units
  mass 1.0
  length 0.45
  angle deg
:documentation
   .ast/.asf automatically generated from VICON data using
   VICON BodyBuilder and BodyLanguage model FoxedUp or BRILLIANT.MOD
:root
   order TX TY TZ RX RY RZ
   axis XYZ
   position 0 0 0  
   orientation 0 0 0 
:bonedata
  begin
     id 1 
     name lhipjoint
     direction 0.596438 -0.722117 0.35044 
     length 2.43043 
     axis 0 0 0  XYZ
  end
  begin
     id 2 
     name lfemur
     direction 0.34202 -0.939693 0  
     length 7.0339  
     axis 0 0 20  XYZ
    dof rx ry rz
    limits (-160.0 20.0)
           (-70.0 70.0)
           (-60.0 70.0)
  end
  begin
     id 3 
     name ltibia
     direction 0.34202 -0.939693 0   
     length 7.56602   
     axis 0 0 20   XYZ
    dof rx
    limits (-10.0 170.0)
  end
  begin
     id 4 
     name lfoot
     direction 0.0985677 -0.270812 0.957572   
     length 1.85172   
     axis -90 7.62852e-016 20   XYZ
    dof rx rz
    limits (-45.0 90.0)
           (-70.0 20.0)
  end
  begin
     id 5 
     name ltoes
     direction 1.53534e-011 -4.21843e-011 1   
     length 0.929904   
     axis -90 7.62852e-016 20   XYZ
    dof rx
    limits (-90.0 20.0)
  end
  begin
     id 6 
     name rhipjoint
     direction -0.585088 -0.729594 0.354068   
     length 2.40552  
     axis 0 0 0  XYZ 
  end
  begin
     id 7 
     name rfemur
     direction -0.34202 -0.939693 0   
     length 7.12573   
     axis 0 0 -20   XYZ
    dof rx ry rz
    limits (-160.0 20.0)
           (-70.0 70.0)
           (-70.0 60.0)
  end
  begin
     id 8 
     name rtibia
     direction -0.34202 -0.939693 0   
     length 7.35777   
     axis 0 0 -20   XYZ
    dof rx
    limits (-10.0 170.0)
 end
 begin
     id 9 
     name rfoot
     direction -0.120907 -0.33219 0.935431   
     length 2.0994  
     axis -90 -7.62852e-016 -20   XYZ
    dof rx rz
    limits (-45.0 90.0)
           (-20.0 70.0)
  end
  begin
     id 10 
     name rtoes
     direction -1.53577e-011 -4.21787e-011 1   
     length 1.04244   
     axis -90 -7.62852e-016 -20   XYZ
    dof rx
    limits (-90.0 20.0)
  end
  begin
     id 11 
     name lowerback
     direction 0.00268363 0.993603 -0.112896   
     length 2.15839   
     axis 0 0 0   XYZ
    dof rx ry rz
    limits (-20.0 45.0)
           (-30.0 30.0)
           (-30.0 30.0)
  end
  begin
     id 12 
     name upperback
     direction 0.0272563 0.999411 -0.0208618   
     length 2.16443   
     axis 0 0 0   XYZ
    dof rx ry rz
    limits (-20.0 45.0)
           (-30.0 30.0)
           (-30.0 30.0)
  end
  begin
     id 13 
     name thorax
     direction 0.0254655 0.999174 0.0316806   
     length 2.19003   
     axis 0 0 0   XYZ
    dof rx ry rz
    limits (-20.0 45.0)
           (-30.0 30.0)
           (-30.0 30.0)
  end
  begin
     id 14 
     name lowerneck
     direction -0.0102178 0.988048 0.15381   
     length 1.61507   
     axis 0 0 0   XYZ
    dof rx ry rz
    limits (-20.0 45.0)
           (-30.0 30.0)
           (-30.0 30.0)
  end
  begin
     id 15 
     name upperneck
     direction -0.0061965 0.994088 -0.108398   
     length 1.64042   
     axis 0 0 0   XYZ
    dof rx ry rz
    limits (-20.0 45.0)
           (-30.0 30.0)
           (-30.0 30.0)
  end
  begin
     id 16
     name head
     direction -0.00151929 0.998591 -0.0530385  
     length 1.64343  
     axis 0 0 0   XYZ
    dof rx ry rz
    limits (-20.0 45.0)
           (-30.0 30.0)
           (-30.0 30.0)
  end
  begin
     id 17 
     name lclavicle
     direction 0.948974 0.284245 -0.136574  
     length 3.3483  
     axis 0 0 0   XYZ
    dof ry rz
    limits (-20.0 10.0)
           (0.0 20.0)
  end
  begin
     id 18 
     name lhumerus
     direction 1 -4.48961e-011 1.68576e-027   
     length 4.93485   
     axis -180 -30 -90   XYZ
    dof rx ry rz
    limits (-60.0 90.0)
           (-90.0 90.0)
           (-90.0 90.0)
  end
  begin
     id 19
     name lradius
     direction 1 -4.48965e-011 -2.46405e-027   
     length 3.41719   
     axis -180 -30 -90   XYZ
    dof rx
    limits (-10.0 170.0)
  end
  begin
     id 20
     name lwrist
     direction 1 -4.48968e-011 -8.00486e-028   
     length 1.7086   
     axis 3.27501e-015 90 90   XYZ
    dof ry
    limits (-180.0 0.0)
 end
  begin
     id 21 
     name lhand
     direction 1 -4.48977e-011 -1.60161e-027   
     length 0.6241   
     axis 1.02148e-015 90 90   XYZ
    dof rx rz
    limits (-90.0 90.0)
           (-45.0 45.0)
  end
  begin
     id 22 
     name lfingers
     direction 1 -4.49049e-011 -3.21275e-027   
     length 0.503166   
     axis 2.04295e-015 90 90   XYZ
    dof rx
    limits (0.0 90.0)
  end
  begin
     id 23
     name lthumb
     direction 0.707107 -6.34975e-011 0.707107   
     length 0.722448   
     axis -90 45 -1.62303e-014   XYZ
    dof rx rz
    limits (-45.0 45.0)
           (-45.0 45.0)
  end
  begin
     id 24 
     name rclavicle
     direction -0.904485 0.355099 -0.236246   
     length 3.18329  
     axis 0 0 0   XYZ 
    dof ry rz
    limits (-10.0 20.0)
           (-20.0 0.0)
  end
  begin
     id 25 
     name rhumerus
     direction -1 -4.48953e-011 1.32816e-027  
     length 5.22034   
     axis -180 30 90   XYZ
    dof rx ry rz
    limits (-90.0 60.0)
           (-90.0 90.0)
           (-90.0 90.0)
  end
  begin
     id 26 
     name rradius
     direction -1 -4.48965e-011 -3.93727e-027   
     length 3.41809   
     axis -180 30 90   XYZ
    dof rx
    limits (-10.0 170.0)
  end
  begin
     id 27 
     name rwrist
     direction -1 -4.48962e-011 -8.003e-028   
     length 1.70904   
     axis 3.27501e-015 -90 -90   XYZ
    dof ry
    limits (-180.0 0.0)
  end
  begin
     id 28
     name rhand
     direction -1 -4.49008e-011 -1.60365e-027   
     length 0.77534   
     axis 1.02148e-015 -90 -90   XYZ
    dof rx rz
    limits (-90.0 90.0)
           (-45.0 45.0)
  end
  begin
     id 29
     name rfingers
     direction -1 -4.49001e-011 -3.2064e-027   
     length 0.625099   
     axis 2.04295e-015 -90 -90   XYZ
    dof rx
    limits (0.0 90.0)
  end
  begin
     id 30
     name rthumb
     direction -0.707107 -6.34989e-011 0.707107   
     length 0.897521   
     axis -90 -45 1.62303e-014   XYZ
    dof rx rz
    limits (-45.0 45.0)
           (-45.0 45.0)
  end
:hierarchy
  begin
    root lhipjoint rhipjoint lowerback
    lhipjoint lfemur
    lfemur ltibia
    ltibia lfoot
    lfoot ltoes
    rhipjoint rfemur
    rfemur rtibia
    rtibia rfoot
    rfoot rtoes
    lowerback upperback
    upperback thorax
    thorax lowerneck lclavicle rclavicle
    lowerneck upperneck
    upperneck head
    lclavicle lhumerus
    lhumerus lradius
    lradius lwrist
    lwrist lhand lthumb
    lhand lfingers
    rclavicle rhumerus
    rhumerus rradius
    rradius rwrist
    rwrist rhand rthumb
    rhand rfingers
  end

#!OML:ASF \\sashay\E\Suitcase\Project 1\Capture day 1\Session 1\Male1.ASF
:FULLY-SPECIFIED
:DEGREES
537
root 1.56606 17.1456 -1.04577 0.775462 6.45689 4.50959
lowerback 6.16709 -1.63495 -6.83969
upperback -0.361768 -2.66007 0.608451
thorax -3.50052 -1.1898 4.71036
lowerneck -18.155 -2.76006 6.16019
upperneck 26.3261 -2.40739 -12.0422
head 11.2802 -2.02611 -5.89896
rclavicle -2.39784e-015 1.19271e-015
rhumerus -35.1911 -39.9836 -59.5377
rradius 16.5099
rwrist 4.04112
rhand -14.5055 25.4771
rfingers 7.12502
rthumb 11.6417 -4.1795
lclavicle -2.39784e-015 1.19271e-015
lhumerus -28.8416 -1.13139 84.1976
lradius 35.6946
lwrist -4.10065
lhand -4.12492 42.2207
lfingers 7.12502
lthumb 21.634 71.0321
rfemur -29.4266 -1.69381 12.9322
rtibia 41.1375
rfoot -11.7365 -10.888
rtoes 11.8588
lfemur -0.764807 -6.20361 -30.756
ltibia 22.8556
lfoot -17.212 6.69531
ltoes 5.98896
538
root 1.56913 17.1565 -0.9428 0.968939 6.46815 4.63726
lowerback 6.08388 -1.64466 -6.95159
upperback -0.220047 -2.67033 0.581039
thorax -3.30073 -1.20468 4.73804
lowerneck -18.8705 -2.34448 6.84462
upperneck 26.6189 -1.7918 -12.9076
head 11.5849 -1.79939 -6.32301
rclavicle -2.86498e-014 2.38542e-014
rhumerus -35.5908 -40.294 -59.3909
rradius 16.5868
rwrist 4.42106
rhand -14.5307 24.9167
rfingers 7.12502
rthumb 11.6173 -4.74127
lclavicle -2.86498e-014 2.38542e-014
lhumerus -28.4831 -1.70463 84.3901
lradius 36.1566
lwrist -3.6536
lhand -4.32444 42.6614
lfingers 7.12502
lthumb 21.4424 71.4947
rfemur -29.6291 -1.79986 12.7193
rtibia 38.9097
rfoot -10.4964 -10.9696
rtoes 9.26282
lfemur -0.186182 -6.34279 -30.8795
ltibia 22.2677
lfoot -17.3568 6.70271
ltoes 6.58698
539
root 1.56114 17.162 -0.826558 0.995406 6.61909 4.61783
lowerback 6.31719 -1.64687 -6.93447
upperback -0.243797 -2.68935 0.623455
thorax -3.45307 -1.20738 4.78509
lowerneck -18.5314 -2.81048 6.12545
upperneck 25.9469 -2.542 -11.9197
head 11.2007 -2.08302 -5.85305
rclavicle -7.97623e-015 7.15625e-015
rhumerus -36.276 -40.3766 -58.8148
rradius 16.1836
rwrist 4.4706
rhand -14.629 25.0022
rfingers 7.12502
rthumb 11.5225 -4.66111
lclavicle -7.97623e-015 7.15625e-015
lhumerus -28.4778 -2.09122 84.621
lradius 36.5545
lwrist -3.54882
lhand -4.22018 42.1561
lfingers 7.12502
lthumb 21.5425 70.978
rfemur -29.5658 -1.76268 12.6738
rtibia 36.6228
rfoot -9.60551 -11.2749
rtoes 12.105
lfemur 0.595098 -6.49875 -30.8205
ltibia 21.6438
lfoot -16.5372 6.77412
ltoes 9.45044
540
root 1.5561 17.1746 -0.722739 1.34768 6.70051 4.49251
lowerback 5.93799 -1.68597 -6.91124
upperback -0.176101 -2.70521 0.713598
thorax -3.16349 -1.22849 4.84904
lowerneck -18.9766 -2.04883 6.90835
upperneck 26.2641 -1.37533 -13.0392
head 11.5231 -1.62243 -6.30933
rclavicle -1.02623e-014 -1.19271e-015
rhumerus -36.6063 -40.4395 -58.8092
rradius 16.2988
rwrist 4.2755
rhand -15.1407 24.4969
rfingers 7.12502
rthumb 11.0291 -5.19336
lclavicle -1.02623e-014 -1.19271e-015
lhumerus -28.3483 -2.07058 84.6719
lradius 37.2517
lwrist -3.85115
lhand -3.93178 42.5115
lfingers 7.12502
lthumb 21.8195 71.3014
rfemur -29.7856 -1.74404 12.7885
rtibia 34.2789
rfoot -8.55012 -11.5889
rtoes 12.403
lfemur 0.802501 -6.33803 -30.6022
ltibia 21.0476
lfoot -16.4962 6.6071
ltoes 9.89146
541
root 1.54208 17.178 -0.606409 1.3952 6.72511 4.32718
lowerback 6.10324 -1.63219 -6.85341
upperback -0.279461 -2.64344 0.779153
thorax -3.37207 -1.18724 4.89057
lowerneck -19.0048 -1.84303 7.4648
upperneck 26.3953 -1.05785 -13.713
head 11.6061 -1.50711 -6.64052
rclavicle 8.12532e-015 1.35174e-014
rhumerus -37.6583 -40.9818 -57.8433
rradius 15.8632
rwrist 4.94318
rhand -14.8969 24.2982
rfingers 7.12502
rthumb 11.2642 -5.37931
lclavicle 8.12532e-015 1.35174e-014
lhumerus -28.4432 -2.87955 84.9185
lradius 37.5483
lwrist -3.46918
lhand -3.64881 42.9106
lfingers 7.12502
lthumb 22.0912 71.6687
rfemur -29.6513 -1.66532 12.9786
rtibia 31.8575
rfoot -7.59553 -11.9183
rtoes 13.6011
lfemur 1.3523 -5.91518 -30.3295
ltibia 20.5572
lfoot -16.0208 6.59315
ltoes 6.36748
542
root 1.54104 17.1836 -0.496706 1.61013 6.75288 4.51328
lowerback 6.03578 -1.67518 -7.02842
upperback -0.212302 -2.70608 0.76731
thorax -3.24851 -1.22221 4.97667
lowerneck -19.3614 -1.72932 7.38496
upperneck 26.3286 -0.890295 -13.7115
head 11.6786 -1.44718 -6.61284
rclavicle -1.22501e-014 -7.95139e-015
rhumerus -37.9529 -40.9164 -57.7372
rradius 15.8083
rwrist 5.03723
rhand -15.391 24.099
rfingers 7.12502
rthumb 10.7876 -5.60402
lclavicle -1.22501e-014 -7.95139e-015
lhumerus -28.355 -2.9723 85.019
lradius 38.0102
lwrist -3.15312
lhand -3.86214 42.4507
lfingers 7.12502
lthumb 21.8863 71.2328
rfemur -29.5891 -1.59644 12.7514
rtibia 29.5075
rfoot -6.84321 -12.0991
rtoes 11.8603
lfemur 1.81516 -5.64436 -30.5117
ltibia 19.9662
lfoot -15.3721 6.63681
ltoes 9.13171
543
root 1.53112 17.1815 -0.411058 1.95443 6.6525 4.25436
lowerback 6.20035 -1.61579 -6.78393
upperback -0.343565 -2.62243 0.878117
thorax -3.49486 -1.1707 4.95945
lowerneck -19.0983 -2.04405 6.76672
upperneck 25.3846 -1.51295 -12.6082
head 11.2053 -1.64786 -6.0792
rclavicle -8.07563e-015 3.18055e-015
rhumerus -38.4469 -41.0638 -57.2778
rradius 15.3639
rwrist 5.53627
rhand -15.2861 23.8948
rfingers 7.12502
rthumb 10.8888 -5.80292
lclavicle -8.07563e-015 3.18055e-015
lhumerus -28.2097 -3.36142 85.2382
lradius 38.3445
lwrist -3.09088
lhand -4.51197 41.3481
lfingers 7.12502
lthumb 21.2623 70.2019
rfemur -29.9791 -1.42625 13.0322
rtibia 27.2612
rfoot -6.43992 -12.2321
rtoes 11.722
lfemur 1.94106 -5.73398 -30.1998
ltibia 19.3253
lfoot -14.7898 6.98374
ltoes 8.91311
544
root 1.52656 17.1961 -0.271565 2.16174 6.76383 4.04236
lowerback 5.47954 -1.64883 -6.61509
upperback -0.0803134 -2.59035 0.988364
thorax -2.82082 -1.19027 4.93923
lowerneck -19.1584 -2.18708 6.41001
upperneck 24.8132 -1.75688 -12.2005
head 10.9858 -1.74394 -5.85793
rclavicle 2.0276e-014 -1.86858e-014
rhumerus -39.0555 -41.4098 -56.8766
rradius 15.6419
rwrist 5.82558
rhand -15.2248 23.4268
rfingers 7.12502
rthumb 10.948 -6.26775
lclavicle 2.0276e-014 -1.86858e-014
lhumerus -28.0401 -3.82844 85.4519
lradius 38.9973
lwrist -2.75069
lhand -4.35682 42.661
lfingers 7.12502
lthumb 21.4113 71.4979
rfemur -29.7791 -1.10839 13.1678
rtibia 25.0895
rfoot -7.14288 -12.6903
rtoes 11.1659
lfemur 2.41402 -5.74639 -29.9378
ltibia 18.7121
lfoot -14.4421 7.17766
ltoes 10.2223
545
root 1.52622 17.1818 -0.174995 2.4414 6.95293 4.58819
lowerback 5.87847 -1.68719 -7.0125
upperback -0.322829 -2.71195 0.795219
thorax -3.27401 -1.22123 4.99342
lowerneck -19.1682 -1.93399 6.55987
upperneck 24.706 -1.50653 -11.9972
head 10.9777 -1.58958 -5.76784
rclavicle 1.19022e-014 -7.95139e-016
rhumerus -39.7091 -40.3468 -57.199
rradius 16.1797
rwrist 4.44346
rhand -14.9525 23.1788
rfingers 7.12502
rthumb 11.2105 -6.5017
lclavicle 1.19022e-014 -7.95139e-016
lhumerus -28.0472 -4.07096 85.4967
lradius 38.9726
lwrist -2.3065
lhand -4.15893 42.1568
lfingers 7.12502
lthumb 21.6013 70.972
rfemur -29.719 -1.34049 12.4984
rtibia 22.9648
rfoot -7.16554 -12.432
rtoes 7.43767
lfemur 2.80838 -5.73896 -30.4972
ltibia 18.1019
lfoot -14.2281 7.12332
ltoes 9.69369
